<svg id="OBJECTS" xmlns="http://www.w3.org/2000/svg" viewBox="0 0 500 193.3"><defs><style>.cls-1,.cls-3,.cls-6{fill:#fff;}.cls-2{fill:#ffd930;}.cls-3{font-size:105.57px;font-family:Gilroy-Bold;font-weight:700;letter-spacing:-0.02em;}.cls-4{letter-spacing:0em;}.cls-5{fill:#e5be1a;}.cls-6{font-size:21.8px;font-family:Gilroy-Regular;}.cls-7{letter-spacing:0.02em;}.cls-8{letter-spacing:-0.03em;}.cls-9{letter-spacing:0em;}</style></defs><title>logo_kuylah_</title><polygon class="cls-1" points="69.48 107.21 39.51 12.89 30.86 133.03 69.48 107.21"/><polygon class="cls-1" points="131.81 90.28 39.51 12.89 86.39 100.05 131.81 90.28"/><polygon class="cls-2" points="39.51 12.89 76.26 111.94 68.57 115.2 86.16 123.33 92.56 105.04 85.07 108.21 39.51 12.89"/><text class="cls-3" transform="translate(139.33 91.46)">k<tspan class="cls-4" x="53.31" y="0">uylah</tspan></text><path class="cls-2" d="M119.73,135.47a8.32,8.32,0,1,1-8.32-8.31A8.31,8.31,0,0,1,119.73,135.47Z"/><path class="cls-2" d="M76.83,136.27a4.16,4.16,0,1,1-4.16-4.16A4.15,4.15,0,0,1,76.83,136.27Z"/><circle class="cls-5" cx="81.65" cy="166.09" r="12.85"/><text class="cls-6" transform="translate(315.43 115.57)">y<tspan class="cls-7" x="11.12" y="0">a </tspan><tspan class="cls-8" x="31.31" y="0">k</tspan><tspan class="cls-7" x="41.43" y="0">ali ga </tspan><tspan class="cls-9" x="105.96" y="0">k</tspan><tspan class="cls-7" x="116.74" y="0">uy</tspan></text></svg>