<svg width="22" height="10" viewBox="0 0 22 10" fill="none" xmlns="http://www.w3.org/2000/svg">
<path d="M22 4.96954C22 4.65313 21.7441 4.39721 21.4277 4.39721H1.94501L5.36971 0.972504C5.59306 0.749154 5.59306 0.390863 5.36971 0.167513C5.14636 -0.0558376 4.78807 -0.0558376 4.56472 0.167513L0.167513 4.56472C-0.0558376 4.78807 -0.0558376 5.14636 0.167513 5.36971L4.56472 9.76692C4.6764 9.8786 4.82064 9.93443 4.96954 9.93443C5.11844 9.93443 5.26269 9.8786 5.37437 9.76692C5.59772 9.54357 5.59772 9.18528 5.37437 8.96193L1.94966 5.53723H21.437C21.7441 5.53723 22 5.28596 22 4.96954Z" fill="#C5CCD6"/>
</svg>
